<svg id="Capa_1" enable-background="new 0 0 512.001 512.001" height="512" viewBox="0 0 512.001 512.001" width="512" xmlns="http://www.w3.org/2000/svg"><g><path d="m97.798 449.733c-2.984 5.686-10.043 7.883-15.724 4.898-5.686-2.984-7.883-10.038-4.898-15.723l82.952-157.968c1.925-3.667.514-8.201-3.153-10.127-3.668-1.925-8.202-.515-10.128 3.153l-19.537 37.205h-60.797c-4.143 0-7.5 3.358-7.5 7.5s3.357 7.5 7.5 7.5h52.919l-55.538 105.764c-5.598 10.665-3.224 23.429 4.979 31.446l-20.231 37.562c-1.964 3.647-.6 8.195 3.047 10.159 1.132.609 2.35.898 3.55.898 2.67 0 5.255-1.43 6.61-3.945l20.275-37.645c1.766.362 3.547.551 5.318.55 9.593-.001 18.877-5.19 23.637-14.256l68.546-130.535h69.454v35.266c0 4.142 3.357 7.5 7.5 7.5s7.5-3.358 7.5-7.5v-35.266h70.297l13.054 24.854c1.341 2.554 3.948 4.014 6.645 4.014 1.176 0 2.369-.277 3.482-.861 3.667-1.926 5.079-6.46 3.152-10.127l-15.199-28.939c-.004-.008-.008-.016-.013-.024l-49.579-94.398c6.683-4.872 12.417-10.963 16.884-17.943l101.511 193.276c-7.976 1.449-15.115 5.328-20.608 10.853l-17.798-33.887c-1.927-3.667-6.46-5.082-10.127-3.152-3.667 1.926-5.078 6.46-3.152 10.127l21.877 41.653c-1.376 3.978-2.133 8.242-2.133 12.682 0 21.457 17.456 38.913 38.913 38.913 3.364 0 6.629-.43 9.745-1.236l19.123 35.506c1.355 2.516 3.939 3.945 6.61 3.945 1.2 0 2.419-.289 3.55-.898 3.647-1.964 5.011-6.513 3.047-10.159l-18.799-34.905c9.486-7.103 15.637-18.429 15.637-31.165 0-17.862-12.101-32.941-28.532-37.496l-37.096-70.631h55.979c4.143 0 7.5-3.358 7.5-7.5s-3.357-7.5-7.5-7.5h-63.859l-66.048-125.754c1.669-5.807 2.583-11.931 2.583-18.268v-23.364c0-4.142-3.357-7.5-7.5-7.5s-7.5 3.358-7.5 7.5v23.364c0 28.251-22.983 51.235-51.234 51.235s-51.235-22.984-51.235-51.235v-78.738c0-1.315 1.069-2.385 2.385-2.385h97.701c1.315 0 2.384 1.07 2.384 2.385v22.685c0 4.142 3.357 7.5 7.5 7.5s7.5-3.358 7.5-7.5v-22.685c0-9.586-7.798-17.385-17.384-17.385h-19.785v-41.96c-.001-16.027-13.04-29.066-29.066-29.066-16.027 0-29.066 13.039-29.066 29.066v41.96h-19.785c-9.586 0-17.385 7.799-17.385 17.385v78.739c0 6.34.914 12.468 2.585 18.278l-31.298 59.601c-1.925 3.667-.514 8.201 3.153 10.127 1.113.584 2.306.861 3.482.861 2.697 0 5.305-1.46 6.646-4.015l25.86-49.246c4.469 6.979 10.202 13.068 16.885 17.939zm145.127-420.667c0-7.756 6.311-14.066 14.066-14.066 7.756 0 14.065 6.31 14.065 14.066v41.96h-28.132v-41.96zm83.572 282.105h-62.419v-35.266c0-4.142-3.357-7.5-7.5-7.5s-7.5 3.358-7.5 7.5v35.266h-61.577l43.613-83.054c7.954 3.388 16.699 5.267 25.876 5.267 9.18 0 17.927-1.88 25.883-5.271zm70.875 123.127c0-13.186 10.728-23.913 23.913-23.913s23.912 10.727 23.912 23.913-10.727 23.913-23.912 23.913c-13.186 0-23.913-10.727-23.913-23.913z"/><path d="m227.9 162.566c0 16.041 13.05 29.09 29.091 29.09 16.04 0 29.09-13.05 29.09-29.09s-13.05-29.09-29.09-29.09c-16.041 0-29.091 13.049-29.091 29.09zm43.181 0c0 7.77-6.32 14.09-14.09 14.09s-14.091-6.321-14.091-14.09 6.321-14.09 14.091-14.09 14.09 6.32 14.09 14.09z"/></g></svg>