<?xml version="1.0" encoding="UTF-8"?>
<svg xmlns="http://www.w3.org/2000/svg" width="512" height="512" viewBox="0 0 512 512"><path d="M496,280a8,8,0,0,0,8-8V240a8,8,0,0,0-8-8H456v-8h16a8,8,0,0,0,8-8V184a8,8,0,0,0-8-8H456a8,8,0,0,0-8-8H400a8,8,0,0,0-8,8v56H294.25l-4-16H348a20.02,20.02,0,0,0,20-20V76a20.02,20.02,0,0,0-20-20H164a20.02,20.02,0,0,0-20,20V196a20.02,20.02,0,0,0,20,20h57.75l-4,16H112V216h8a8,8,0,0,0,8-8V176a8,8,0,0,0-8-8H104V144a8,8,0,0,0-8-8H32a8,8,0,0,0-8,8v32a8,8,0,0,0,8,8H48v16H40a8,8,0,0,0-8,8v24H16a8,8,0,0,0-8,8v32a8,8,0,0,0,8,8H40V440H16a8,8,0,0,0,0,16H496a8,8,0,0,0,0-16H472V280Zm-40-88h8v16h-8Zm-48-8h32v48H408ZM160,76a4,4,0,0,1,4-4H348a4,4,0,0,1,4,4V176H160Zm4,124a4,4,0,0,1-4-4v-4H352v4a4,4,0,0,1-4,4Zm113.75,32h-43.5l4-16h35.5ZM112,184v16H64V184ZM40,168V152H88v16Zm8,48H96v16H48ZM72,440H56V280H72Zm352,0H88V280H424Zm32,0H440V280h16ZM24,264V248H488v16Z"/></svg>
